Patient4_TMGait_0pt4_02_left_23_EMG.mot
version=1
nRows=23
nColumns=33
inDegrees=no
endheader
time	1LAddLong	2LGlutMax	3LGlutMed	4LIliopsoas	5LSemiMemb	6LBicFemLong	7LRecFem	8LVastMed	9LVastLat	10LGasMed	11LTibAnt	12lTibPost	13LPeroneusLong	14LSol	15LExtDigLong	16LFlexDigLong	17RAddLong	18RGlutMax	19RGlutMed	20RIliopsoas	21RSemiMemb	22RBicFemLong	23RRecFem	24RVastMed	25RVastLat	26RGasMed	27RTibAnt	28RTibPost	29RPeroneusLong	30RSol	31RExtDigLong	32RFlexDigLong
31.287	0.01709	-0.16663	-0.084839	-0.019073	-0.001373	-0.016937	-0.24353	-0.02594	-0.008087	-0.030212	-0.003815	0.055542	-0.094604	-0.50583	0.085297	-0.002289	0.028992	0.89829	-0.28702	0.038605	-0.10452	0.032349	0.46692	-0.057373	-0.055237	-0.021973	-0.00885	-0.042877	0.60135	0.14847	-0.001373	-0.003357
31.288	0.015259	-0.16846	-0.10895	-0.022888	-0.019684	-0.079651	-0.19501	-0.026245	-0.11704	-0.028839	0.007629	0.046692	-0.002899	-0.28275	0.078583	0.016632	0.014343	0.87341	-0.25269	0.03006	-0.096283	0.035248	0.42389	-0.034637	-0.041046	-0.006104	-0.021515	-0.039978	0.34042	0.33279	-0.006561	-0.008698
31.289	0.005188	-0.18662	-0.15076	-0.017853	-0.006409	-0.070496	-0.18845	-0.007324	-0.065918	-0.001831	0.014038	0.049438	0.018005	-0.004578	0.086975	0.006256	0.001221	0.84152	-0.24918	0.007477	-0.086823	0.025177	0.40161	-0.038452	-0.048065	-0.000763	-0.053406	-0.043182	0.098572	0.12344	-0.001678	-0.019684
31.29	0.007935	-0.1355	-0.050354	-0.020752	-0.00351	-0.11368	-0.20081	0.002594	0.011749	0.020294	0.022736	0.040588	-0.010834	0.062408	0.085144	0.007324	-0.021973	0.81665	-0.046844	0.096588	-0.081177	0.037079	0.40207	-0.01297	-0.033569	0.009766	-0.070038	-0.078583	0.11734	-0.47379	-0.001831	-0.013123
31.291	0.015411	-0.099487	-0.03006	0.005951	-0.007019	-0.22644	-0.19821	-0.002136	0.049591	0.037994	0.034485	0.033722	-0.008545	0.08667	0.058441	0.013123	-0.066223	0.77942	-0.034637	-0.014801	-0.067596	0.055847	0.38238	0.009155	-0.025177	0.016174	-0.051117	-0.13687	0.17349	-0.64362	-0.005035	-0.011444
31.292	0.00946	-0.081635	-0.067291	-0.011292	0.036621	-0.26947	-0.168	-0.001221	0.033722	0.054321	-0.00885	0.030212	0.029144	0.11078	0.046844	0.008392	-0.084534	0.7663	-0.22339	-0.16342	-0.075226	0.048828	0.38895	0.057373	-0.022125	0.019379	-0.013275	-0.03418	0.056152	-0.56671	0.002289	-0.015259
31.293	0.001221	-0.10284	-0.072479	0.014496	0.032959	-0.20035	-0.11383	-0.002899	0.018921	0.037384	-0.02533	0.016937	0.069122	0.1828	0.04837	-0.00061	-0.068665	0.76538	-0.20248	-0.31494	-0.087738	0.043945	0.37781	0.009155	-0.033569	0.007477	0.035858	0.016327	-0.14664	-0.63416	-0.001831	-0.013428
31.294	0.000153	-0.12589	-0.11139	0.001373	0.021667	-0.0354	-0.15595	-0.006714	0.023499	0.024567	-0.043335	0.005493	0.033722	0.21713	0.032196	0.003052	-0.045166	0.71487	-0.10895	-0.18143	-0.092468	0.036621	0.33737	0.000153	-0.039063	-0.000916	0.03418	-0.0354	-0.2887	-0.72891	-0.003052	-0.007477
31.295	-0.007019	-0.11368	-0.17456	0.027618	-0.007935	0.16876	-0.18448	0.000153	0.015564	0.02243	-0.10025	0.004425	0.013428	0.13397	0.010376	0.008698	-0.031128	0.69778	-0.16144	0.002289	-0.089874	0.04425	0.36194	-0.005188	-0.044556	-0.002289	0.030975	-0.04425	-0.091553	-0.4921	0	-0.005493
31.296	-0.00061	-0.036926	-0.11581	0.026855	-0.079651	0.26672	-0.23941	0.010071	0.051117	0.015259	0.011292	-0.002441	-0.25833	0.1059	0.045624	0.005341	-0.021667	0.70587	0.03067	0.13397	-0.084229	0.040588	0.3862	-0.036316	-0.02533	-0.010986	-0.00885	0.00061	0.21072	-0.37293	0.000458	0.004425
31.297	0.007019	-0.06546	-0.11429	-0.008392	-0.082855	0.18845	-0.22934	0.019684	0.042725	0.030518	0.15167	-0.00824	-0.15427	0.12024	0.077667	0.005035	-0.000305	0.63873	-0.31754	0.072479	-0.087891	0.053711	0.33814	0.014496	-0.022736	-0.016174	0.002289	0.010376	0.62256	0.4538	0.003967	-0.011292
31.298	0.010986	-0.024719	-0.10178	-0.011139	-0.035095	0.093689	-0.2066	0.013733	0.058441	0.023193	0.1062	-0.012512	0.17792	0.13657	0.090027	-0.001526	0.03418	0.62515	-0.38528	-0.020905	-0.089874	0.037079	0.3656	-0.032349	-0.029755	-0.028381	0.017395	-0.023499	0.4245	0.3891	-0.006561	-0.004272
31.299	0.009155	-0.008698	-0.070038	-0.000305	0.006714	0.068359	-0.26169	0.015411	0.21011	0.012817	0.097961	-0.015717	0.35965	0.12009	0.1329	-0.002441	0.044098	0.60577	-0.24124	-0.098267	-0.090332	0.047302	0.3447	-0.041046	-0.02533	-0.033417	0.029144	-0.02243	-0.10254	0.098724	-0.004425	-0.012817
31.3	0.003967	0.027313	-0.016479	0.008392	-0.030975	0.046844	-0.27969	0.007629	0.30762	-0.00946	0.13046	-0.027313	0.48508	0.1828	0.081177	0.003967	0.075684	0.58823	-0.19745	-0.025635	-0.085144	0.034943	0.38208	-0.07019	-0.02121	-0.012054	-0.014191	-0.014648	0.021973	-0.042419	-0.008698	-0.016327
31.301	-0.002441	0.099945	0.16541	0.007782	-0.027161	0.077515	-0.25375	-0.005798	0.31052	0.020905	0.17548	-0.025177	-0.1358	0.14206	-0.037689	-0.002747	0.070343	0.50491	-0.27664	0.087585	-0.08667	0.043793	0.33859	-0.10239	-0.024109	-0.010071	-0.010071	-0.01358	0.051117	-0.026703	-0.00473	-0.00824
31.302	-0.002899	0.10513	0.15121	-0.00061	-0.014038	-0.023193	-0.20996	-0.01236	0.27847	0.03891	0.084076	-0.033722	-0.82535	0.097351	-0.10101	-0.01358	0.060883	0.448	-0.26581	0.032349	-0.086975	0.03479	0.33981	-0.052032	-0.012512	-0.004272	0.042725	-0.024567	-0.32105	0.11932	-0.004578	-0.007019
31.303	0.005951	0.13901	0.10056	0.009918	-0.018921	-0.090027	-0.22919	-0.009613	0.24155	0.046387	0.086975	-0.032654	-0.40192	0.13718	-0.10742	-0.010071	0.060425	0.34866	-0.20584	0.00946	-0.083618	0.031891	0.34164	-0.059052	-0.024414	0.005341	0.02594	-0.085144	-0.36407	0.030212	-0.002289	-0.018005
31.304	-0.029755	0.16647	0.10544	0.011292	0.010834	-0.03952	-0.22949	-0.017548	0.24857	-0.012665	0.10483	-0.032196	0.22568	0.21408	-0.032349	-0.006104	0.038147	0.28442	-0.23712	0.03952	-0.082245	0.036011	0.34622	-0.083923	0.001373	-0.000458	0.016327	-0.12878	-0.42969	-0.023041	0.002747	-0.021973
31.305	-0.011749	0.19486	0.22644	0.008087	-0.015411	0.098877	-0.15366	-0.023651	0.055084	-0.050049	0.095367	-0.03891	1.4592	0.25894	0.02594	-0.002136	-0.002441	0.25055	-0.27542	0.036163	-0.094757	0.039673	0.35187	-0.044403	-0.005493	-0.020905	0.015564	0.081635	-0.6633	-0.07019	-0.00473	-0.018005
31.306	0.007629	0.15823	0.11505	-0.015259	-0.034485	0.1178	-0.086823	-0.0177	-0.2739	-0.063171	0.112	-0.038452	1.1282	0.28259	0.16007	-0.002441	-0.021667	0.14877	-0.17532	-0.000458	-0.093536	0.037079	0.31494	-0.046234	-0.010223	-0.036011	-0.008698	-0.22308	-0.39505	-0.18967	0.00351	-0.024261
31.307	0.008392	0.1442	0.16357	-0.026245	-0.016174	0.1915	-0.12405	-0.009155	-0.20325	-0.085907	-0.13428	-0.032654	0.28275	0.22247	0.001678	0.003357	0.00473	0.1149	-0.25955	0.037537	-0.088959	0.039978	0.30853	-0.033722	0.005188	-0.063477	-0.014801	-0.49225	0.17929	-0.40405	0.000305	-0.030212
31.308	0.005035	0.11688	0.23651	0.006409	-0.007172	0.31723	-0.10162	-0.001984	-0.11154	-0.057678	-0.12955	-0.043182	-0.44083	0.000305	-0.32242	-0.018921	0.016174	0.036774	-0.35034	0.073242	-0.072479	0.044403	0.3273	-0.024109	-0.000153	-0.046692	0.014496	0.25803	-0.22934	-0.23911	0.001221	-0.024719
31.309	-0.000458	0.092926	0.13947	0.028839	-0.005798	0.3772	-0.080719	0.001678	-0.037537	-0.034485	-0.14496	-0.030212	-1.0928	-0.13046	-0.23926	-0.012665	-0.002899	0.023804	-0.12451	0.001526	-0.053101	0.053253	0.30762	-0.003204	-0.006714	-0.018616	0.019989	0.34103	-0.52551	0.16815	0.000458	-0.020142
